<mxfile host="app.diagrams.net" modified="2022-11-09T17:05:18.935Z" agent="5.0 (Windows NT 10.0; Win64; x64) AppleWebKit/537.36 (KHTML, like Gecko) Chrome/107.0.0.0 Safari/537.36" etag="mK1uOUfQOMmlOiAhX7EJ" version="20.5.1" type="github">
  <diagram id="C5RBs43oDa-KdzZeNtuy" name="Page-1">
    <mxGraphModel dx="868" dy="424" grid="1" gridSize="10" guides="1" tooltips="1" connect="1" arrows="1" fold="1" page="1" pageScale="1" pageWidth="827" pageHeight="1169" math="0" shadow="0">
      <root>
        <mxCell id="WIyWlLk6GJQsqaUBKTNV-0" />
        <mxCell id="WIyWlLk6GJQsqaUBKTNV-1" parent="WIyWlLk6GJQsqaUBKTNV-0" />
        <mxCell id="k_P6_psk9JsHCUSglVDp-8" style="edgeStyle=orthogonalEdgeStyle;rounded=0;orthogonalLoop=1;jettySize=auto;html=1;" edge="1" parent="WIyWlLk6GJQsqaUBKTNV-1" source="k_P6_psk9JsHCUSglVDp-0" target="k_P6_psk9JsHCUSglVDp-5">
          <mxGeometry relative="1" as="geometry" />
        </mxCell>
        <mxCell id="k_P6_psk9JsHCUSglVDp-0" value="Encargado autenticado" style="shape=umlActor;verticalLabelPosition=bottom;verticalAlign=top;html=1;outlineConnect=0;" vertex="1" parent="WIyWlLk6GJQsqaUBKTNV-1">
          <mxGeometry x="120" y="110" width="30" height="60" as="geometry" />
        </mxCell>
        <mxCell id="k_P6_psk9JsHCUSglVDp-10" style="edgeStyle=orthogonalEdgeStyle;rounded=0;orthogonalLoop=1;jettySize=auto;html=1;endArrow=classic;endFill=1;" edge="1" parent="WIyWlLk6GJQsqaUBKTNV-1" source="k_P6_psk9JsHCUSglVDp-1" target="k_P6_psk9JsHCUSglVDp-6">
          <mxGeometry relative="1" as="geometry" />
        </mxCell>
        <mxCell id="k_P6_psk9JsHCUSglVDp-11" style="edgeStyle=orthogonalEdgeStyle;rounded=0;orthogonalLoop=1;jettySize=auto;html=1;entryX=0;entryY=0.5;entryDx=0;entryDy=0;endArrow=none;endFill=0;" edge="1" parent="WIyWlLk6GJQsqaUBKTNV-1" source="k_P6_psk9JsHCUSglVDp-1" target="k_P6_psk9JsHCUSglVDp-7">
          <mxGeometry relative="1" as="geometry" />
        </mxCell>
        <mxCell id="k_P6_psk9JsHCUSglVDp-1" value="Cliente" style="shape=umlActor;verticalLabelPosition=bottom;verticalAlign=top;html=1;outlineConnect=0;" vertex="1" parent="WIyWlLk6GJQsqaUBKTNV-1">
          <mxGeometry x="120" y="240" width="30" height="60" as="geometry" />
        </mxCell>
        <mxCell id="k_P6_psk9JsHCUSglVDp-9" style="edgeStyle=orthogonalEdgeStyle;rounded=0;orthogonalLoop=1;jettySize=auto;html=1;entryX=1;entryY=0.5;entryDx=0;entryDy=0;endArrow=none;endFill=0;" edge="1" parent="WIyWlLk6GJQsqaUBKTNV-1" source="k_P6_psk9JsHCUSglVDp-2" target="k_P6_psk9JsHCUSglVDp-7">
          <mxGeometry relative="1" as="geometry" />
        </mxCell>
        <mxCell id="k_P6_psk9JsHCUSglVDp-2" value="Servicio de banco" style="shape=umlActor;verticalLabelPosition=bottom;verticalAlign=top;html=1;outlineConnect=0;" vertex="1" parent="WIyWlLk6GJQsqaUBKTNV-1">
          <mxGeometry x="630" y="180" width="30" height="60" as="geometry" />
        </mxCell>
        <mxCell id="k_P6_psk9JsHCUSglVDp-4" value="" style="rounded=0;whiteSpace=wrap;html=1;fillColor=none;" vertex="1" parent="WIyWlLk6GJQsqaUBKTNV-1">
          <mxGeometry x="200" y="50" width="390" height="380" as="geometry" />
        </mxCell>
        <mxCell id="k_P6_psk9JsHCUSglVDp-5" value="Dar de alta mobiliario" style="ellipse;whiteSpace=wrap;html=1;fillColor=none;" vertex="1" parent="WIyWlLk6GJQsqaUBKTNV-1">
          <mxGeometry x="310" y="70" width="140" height="70" as="geometry" />
        </mxCell>
        <mxCell id="k_P6_psk9JsHCUSglVDp-6" value="Reservar mueble" style="ellipse;whiteSpace=wrap;html=1;fillColor=none;" vertex="1" parent="WIyWlLk6GJQsqaUBKTNV-1">
          <mxGeometry x="320" y="205" width="140" height="70" as="geometry" />
        </mxCell>
        <mxCell id="k_P6_psk9JsHCUSglVDp-13" style="edgeStyle=orthogonalEdgeStyle;rounded=0;orthogonalLoop=1;jettySize=auto;html=1;entryX=0.5;entryY=1;entryDx=0;entryDy=0;endArrow=classicThin;endFill=1;" edge="1" parent="WIyWlLk6GJQsqaUBKTNV-1" source="k_P6_psk9JsHCUSglVDp-7" target="k_P6_psk9JsHCUSglVDp-6">
          <mxGeometry relative="1" as="geometry" />
        </mxCell>
        <mxCell id="k_P6_psk9JsHCUSglVDp-7" value="Pagar con tarjeta" style="ellipse;whiteSpace=wrap;html=1;fillColor=none;" vertex="1" parent="WIyWlLk6GJQsqaUBKTNV-1">
          <mxGeometry x="325" y="330" width="140" height="70" as="geometry" />
        </mxCell>
        <mxCell id="k_P6_psk9JsHCUSglVDp-14" value="&amp;lt;extends&amp;gt;" style="text;html=1;strokeColor=none;fillColor=none;align=center;verticalAlign=middle;whiteSpace=wrap;rounded=0;" vertex="1" parent="WIyWlLk6GJQsqaUBKTNV-1">
          <mxGeometry x="400" y="290" width="60" height="30" as="geometry" />
        </mxCell>
      </root>
    </mxGraphModel>
  </diagram>
</mxfile>
